<?xml version="1.0" encoding="utf-8"?>
<!-- Generator: Adobe Illustrator 16.0.0, SVG Export Plug-In . SVG Version: 6.00 Build 0)  -->
<!DOCTYPE svg PUBLIC "-//W3C//DTD SVG 1.1//EN" "http://www.w3.org/Graphics/SVG/1.1/DTD/svg11.dtd">
<svg version="1.1" id="Layer_1" xmlns="http://www.w3.org/2000/svg" xmlns:xlink="http://www.w3.org/1999/xlink" x="0px" y="0px"
	 width="211px" height="86px" viewBox="0 0 211 86" enable-background="new 0 0 211 86" xml:space="preserve">
<g>
	<path fill="#FFFFFF" d="M106.561,40.84l-4.208-10.109h-0.056V40.84H98.38V21.025h3.916v9.217h0.056l4.293-9.217h3.885l-4.576,9.188
		l5.009,10.626H106.561z"/>
	<path fill="#FFFFFF" d="M117.501,41.127c-3.716,0-5.589-1.786-5.589-4.867c0-3.976,2.939-5.213,7.086-5.761v-0.519
		c0-1.467-0.862-2.156-2.218-2.156c-1.298,0-2.447,0.371-3.283,0.805l-0.779-2.448c0.894-0.49,2.449-1.152,4.783-1.152
		c2.907,0,5.096,1.439,5.096,5.702v9.245C121.474,40.695,119.92,41.127,117.501,41.127z M118.998,32.749
		c-2.392,0.315-3.571,1.122-3.571,3.368c0,1.585,0.778,2.477,2.246,2.477c0.519,0,1.036-0.145,1.325-0.258V32.749z"/>
	<path fill="#FFFFFF" d="M132.128,28.11c-0.861-0.43-1.846-0.401-2.559-0.057V40.84h-3.721V26.182
		c1.412-0.836,3.398-1.297,6.972-1.125L132.128,28.11z"/>
	<path fill="#FFFFFF" d="M139.442,41.127c-3.805,0-5.675-3.456-5.675-8.063c0-4.606,1.87-8.035,5.675-8.035
		c3.828,0,5.673,3.428,5.673,8.035C145.115,37.672,143.271,41.127,139.442,41.127z M139.442,27.795
		c-1.642,0-1.928,2.361-1.928,5.182c0,2.823,0.317,5.125,1.928,5.125c1.671,0,1.963-2.303,1.963-5.096
		C141.405,30.185,141.113,27.795,139.442,27.795z"/>
	<path fill="#FFFFFF" d="M148.057,40.84v-21.5l3.767-1.106V40.84H148.057z"/>
	<path fill="#FFFFFF" d="M157.063,22.785c-1.088,0-1.986-0.921-1.986-2.018c0-1.122,0.898-2.014,1.986-2.014
		c1.126,0,2.047,0.892,2.047,2.014C159.11,21.863,158.189,22.785,157.063,22.785z M155.222,40.84V25.318h3.744V40.84H155.222z"/>
	<path fill="#FFFFFF" d="M169.451,40.84V29.867c0-1.353-0.55-2.102-1.873-2.102c-0.778,0-1.155,0.087-1.553,0.287V40.84h-3.718
		V26.182c1.234-0.691,2.992-1.152,5.358-1.152c3.799,0,5.554,1.554,5.554,4.838V40.84H169.451z"/>
	<path fill="#FFFFFF" d="M179.556,41.127c-1.757,0-2.967-0.374-3.857-1.151l0.92-2.738c0.434,0.404,1.352,0.864,2.363,0.864
		c0.975,0,1.613-0.576,1.613-1.439c0-1.125-0.494-1.583-1.872-2.621c-1.467-1.094-2.764-2.448-2.764-4.492
		c0-2.649,1.753-4.521,4.346-4.521c1.671,0,2.908,0.431,3.803,1.152l-0.895,2.391c-0.374-0.347-1.092-0.748-2.047-0.748
		c-0.916,0-1.496,0.689-1.496,1.467c0,1.009,0.726,1.613,2.1,2.621c1.616,1.207,2.767,2.333,2.767,4.605
		C184.536,39.17,182.438,41.127,179.556,41.127z"/>
	<path fill="#FFFFFF" d="M194.877,40.84l-3.945-8.12h-0.06v8.12h-3.714v-21.5l3.714-1.106v14.195h0.06l3.973-7.11h3.69l-4.322,7.11
		l4.634,8.411H194.877z"/>
	<path fill="#FFFFFF" d="M205.619,41.127c-3.714,0-5.589-1.786-5.589-4.867c0-3.976,2.939-5.213,7.089-5.761v-0.519
		c0-1.467-0.871-2.156-2.224-2.156c-1.295,0-2.445,0.371-3.281,0.805l-0.778-2.448c0.895-0.49,2.447-1.152,4.783-1.152
		c2.908,0,5.095,1.439,5.095,5.702v9.245C209.59,40.695,208.033,41.127,205.619,41.127z M207.119,32.749
		c-2.396,0.315-3.573,1.122-3.573,3.368c0,1.585,0.775,2.477,2.244,2.477c0.518,0,1.041-0.145,1.329-0.258V32.749z"/>
	<g>
		<path fill="#FFFFFF" d="M98.38,65.192V45.375h3.943v19.817H98.38z"/>
		<path fill="#FFFFFF" d="M112.921,65.192V54.216c0-1.356-0.547-2.104-1.87-2.104c-0.776,0-1.153,0.088-1.558,0.292v12.787h-3.711
			V50.529c1.236-0.689,2.992-1.151,5.353-1.151c3.802,0,5.56,1.556,5.56,4.838v10.976H112.921z"/>
		<path fill="#FFFFFF" d="M123.031,65.479c-1.761,0-2.97-0.376-3.86-1.155l0.92-2.738c0.431,0.408,1.354,0.868,2.36,0.868
			c0.98,0,1.614-0.575,1.614-1.442c0-1.123-0.489-1.582-1.874-2.623c-1.465-1.086-2.762-2.443-2.762-4.488
			c0-2.653,1.754-4.522,4.347-4.522c1.671,0,2.91,0.433,3.803,1.151l-0.893,2.388c-0.374-0.341-1.096-0.745-2.045-0.745
			c-0.924,0-1.495,0.688-1.495,1.47c0,1.008,0.716,1.613,2.098,2.619c1.613,1.211,2.77,2.335,2.77,4.606
			C128.014,63.519,125.909,65.479,123.031,65.479z"/>
		<path fill="#FFFFFF" d="M135.27,65.39c-2.538,0-3.918-1.728-3.918-4.464v-8.462h-1.381v-2.797h1.381v-3.37l3.745-1.179v4.548
			h2.043v2.797h-2.043v8.063c0,1.438,0.484,1.926,1.267,1.926c0.346,0,0.571-0.087,0.776-0.146v2.675
			C136.909,65.16,136.132,65.39,135.27,65.39z"/>
		<path fill="#FFFFFF" d="M141.542,47.131c-1.092,0-1.982-0.92-1.982-2.013c0-1.125,0.891-2.017,1.982-2.017
			c1.13,0,2.048,0.892,2.048,2.017C143.59,46.211,142.672,47.131,141.542,47.131z M139.701,65.192V49.666h3.743v15.526H139.701z"/>
		<path fill="#FFFFFF" d="M151.449,65.39c-2.533,0-3.914-1.728-3.914-4.464v-8.462h-1.381v-2.797h1.381v-3.37l3.743-1.179v4.548
			h2.044v2.797h-2.044v8.063c0,1.438,0.49,1.926,1.27,1.926c0.345,0,0.572-0.087,0.774-0.146v2.675
			C153.091,65.16,152.314,65.39,151.449,65.39z"/>
		<path fill="#FFFFFF" d="M161.273,65.479c-3.457,0-5.441-1.497-5.441-5.386V49.666h3.739v10.861c0,1.235,0.606,2.012,1.818,2.012
			c0.57,0,1.092-0.144,1.494-0.373v-12.5h3.771v14.6C165.535,64.982,163.715,65.479,161.273,65.479z"/>
		<path fill="#FFFFFF" d="M174.575,65.39c-2.534,0-3.916-1.728-3.916-4.464v-8.462h-1.381v-2.797h1.381v-3.37l3.741-1.179v4.548
			h2.043v2.797H174.4v8.063c0,1.438,0.492,1.926,1.271,1.926c0.346,0,0.574-0.087,0.772-0.146v2.675
			C176.22,65.16,175.441,65.39,174.575,65.39z"/>
		<path fill="#FFFFFF" d="M182.032,59.143c0.233,2.247,1.206,3.369,3.05,3.369c1.582,0,2.651-0.433,3.257-0.811l0.838,2.622
			c-0.982,0.693-2.513,1.155-4.587,1.155c-4.083,0-6.273-3.026-6.273-8.093c0-4.666,2.134-8.008,5.818-8.008
			c3.916,0,5.816,3.342,5.528,8.811L182.032,59.143z M184.05,52.084c-1.386,0-2.28,1.903-2.253,4.636l4.208-0.519
			C186.005,53.584,185.429,52.084,184.05,52.084z"/>
		<path fill="#FFFFFF" d="M196.977,65.39c-2.535,0-3.916-1.728-3.916-4.464v-8.462h-1.382v-2.797h1.382v-3.37l3.744-1.179v4.548
			h2.045v2.797h-2.045v8.063c0,1.438,0.488,1.926,1.265,1.926c0.349,0,0.576-0.087,0.78-0.146v2.675
			C198.618,65.16,197.836,65.39,196.977,65.39z"/>
	</g>
	<path fill-rule="evenodd" clip-rule="evenodd" fill="#FFFFFF" d="M33.236,36.708c-0.252-0.698-10.907-0.551-14.759-0.525
		c-1.231,0-4.053,0.097-4.053,0.097s0.814-3.394,5.879-2.454c2.033,0.38,3.261,1.667,5.779,1.369
		c-0.033-0.155-0.021-0.145-0.077-0.229c-0.155-0.292-0.828-0.181-0.836-0.606c0.607-0.25,2.909,0.883,3.193,0.835
		c-1.422-0.557-1.04-0.608-1.066-0.608c0-0.025,0.734-0.408,1.14,0.227c-0.328-0.927-1.249-0.201-2.052-0.377
		c-0.329-0.074-0.673-0.21-1.065-0.229c0.408-0.382,0.827-0.072,1.068-0.02c0.051-0.096,0.079-0.063,0.149-0.132
		c-0.213-0.953-2.643-1.553-3.876-1.141c-0.379,0.127-2.024-0.586-2.587-0.761c-2.176-0.673-5.234-0.588-6.839,0.534
		c-1.983,1.383-3.093,4.664-1.294,7.144c1.05,1.446,2.937,1.921,5.247,2.13c-0.269,0.264-0.312,0.538-0.153,1.138
		c0.307,1.164,0.738,2.045,1.9,2.965c0.335,0.267,1.074,0.474,1.294,0.838c0.185,0.308,0.25,0.673,0.379,0.986
		c0.405,0.023,0.81,0.05,1.216,0.078c0.004,0.105-0.033,1.019-0.033,1.019s-1.071,0.346-1.449,1.072
		c-0.172,0.326-0.974,2.027,1.45,2.951c-0.223,0.86-1.05,1.543-1.871,1.799c-0.54,0.168-0.99,0.155-1.345,0.477
		c-0.264,0.25-0.296,0.982-0.296,1.034c3.319,0,6.578,0.007,9.896,0.007c0.095-0.622-0.094-1.072-0.796-1.267
		c-0.976-0.359-0.91-0.173-1.735-0.918c1.002-1.127,0.002-2.152-0.934-2.333c0-0.358,0-1.347,0-1.347s0.765-0.379,1.062-0.519
		c1.113-0.516,1.718-1.062,2.087-1.522c0.571-0.722,0.599-1.943,0.315-2.645c2.408-2.765,1.105-3.532,1.167-3.801
		c0.298-1.266,0.839-3.253,2.446-3.695c0.558-0.155,1.713-0.157,1.763-0.157C33.363,37.587,33.453,36.975,33.236,36.708z
		 M19.419,36.653v0.988h-0.738c-0.025-0.332-0.049-0.66-0.073-0.988H19.419z M17.993,36.729c0.052,0.25,0.081,0.563,0.076,0.913
		h-0.725c0.083-0.237-0.03-0.62-0.037-0.966C17.462,36.705,17.944,36.729,17.993,36.729z M16.046,36.675
		c0.18,0.025,0.566-0.05,0.742-0.022c0.051,0.329,0.036,0.723,0.087,1.055c-0.223,0.002-0.618,0.119-0.736,0.04
		C16.139,37.497,16.032,37.064,16.046,36.675z M14.911,36.789c0.179,0.027,0.404-0.039,0.581-0.012
		c0.05,0.327,0.034,0.606,0.085,0.937c-0.221,0.002-0.456,0.017-0.574-0.064C15.003,37.396,14.897,37.177,14.911,36.789z
		 M15.849,38.326c0.151,0.176,0.306,0.352,0.458,0.529v0.077c-0.549-0.118-1.14-0.304-1.523-0.606H15.849z M12.429,37.335
		c-0.092-1.44,0.369-2.781,1.332-3.569c1.897-1.557,3.635-1.959,8.551-0.638c0.731,0.197,1.24-0.127,1.919-0.002
		c0.265,0.049,0.567,0.063,0.797,0.244c-0.019,0.114-0.019,0.226-0.019,0.226s-0.754-0.284-1.024-0.088
		c-0.051,0-0.224,0.225,0.15,0.456c0.538-0.313,0.868-0.091,0.989-0.048c-0.585,0.368-0.078,0.812-0.078,0.836
		c-1.818-0.036-2.762-0.693-4.027-1.213c-1.464-0.605-3.936-0.556-5.397,0.075c-2.856,1.227-3.072,5.718,0.929,5.905
		c0.121,0.441,0.298,1.086,0.483,1.636C13.113,40.985,12.438,37.477,12.429,37.335z M19.797,45.862
		c-0.002-0.004-0.005-0.008-0.009-0.013c-0.122-0.098-0.986-0.708-1.637-1.942c-0.262-0.568-0.473-0.935-0.251-1.17
		c0.79-0.635,1.275,2.114,1.889,3.112C19.802,45.858,19.806,45.862,19.797,45.862z M19.672,43.781
		c-0.14-0.716-0.057-1.421,0.538-1.391c0.989-0.061,1.235,2.435,1.583,3.799c0.145,0.049-0.633,0.015-0.633,0.015
		S20.08,45.862,19.672,43.781z M21.603,43.402c0-1.048,0.854-1.458,1.204-1.238c0.601,0.414,0.137,3.952,0.021,4.107
		c-0.171,0.003-0.466-0.021-0.466-0.021S21.485,44.143,21.603,43.402z M21.327,47.411c-0.011-0.032-0.188-0.559-0.199-0.683
		c1.667,0.113,3.256,0.105,5.027,0c-0.043,0.142-0.327,0.668-0.407,0.683C24.83,47.584,21.353,47.492,21.327,47.411z M24.359,46.25
		h-0.824c0.063-1.631-0.117-2.653,0.349-3.356c0.206-0.389,0.938-0.992,1.394-0.409C25.479,43.27,24.855,45.115,24.359,46.25z
		 M26.937,42.334c0.726,0.158,0.399,2.873-1.291,3.908c-0.101,0-0.53,0.029-0.633,0.029C25.477,45.038,25.721,42.164,26.937,42.334z
		 M25.035,47.867c0,0-1.12,0.695-2.472,0.95c0-0.279,0.021-0.93,0.021-0.93L25.035,47.867z M25.314,54.475
		c0.462,0.81,2.459,0.949,2.055,1.257c-2.684,0-7.699,0-7.699,0s0.004-0.066,0.034-0.242c3.745-0.952,1.945-3.606,4.583-4.666
		c0.074-0.031,0,2.474,0,2.474c-0.113,0.523,0.281,0.881-1.596,1.875C22.692,55.2,24.875,54.885,25.314,54.475z M21.91,52.599
		c-0.01-0.013-1.057-1.281-0.17-2.242c1.387-1.502,4.645-1.499,5.111-3.694c0.131-0.049,1.067-0.633,1.119-0.633
		C28.561,49.838,22.672,49.407,21.91,52.599z M27.061,46.136c-0.389,0.23-0.606,0.125-0.612,0.125c0,0,1.073-0.738,1.522-3.125
		c0.356-0.82,0.828-0.785,1.054-0.632C30.037,43.137,27.725,45.862,27.061,46.136z M28.829,41.775
		c-0.508,0.103-0.812,0.174-1.08,0.617c-0.207-0.384-0.155-0.384-0.762-0.59c-0.797,0-1.102,0.257-1.344,0.65
		c-0.056-0.349-0.521-0.624-0.987-0.729c-0.859,0-0.927,0.346-1.274,0.729c0,0-0.27-0.824-1.064-0.754
		c-0.729,0-1.141,0.442-1.258,0.935c-0.272-0.294-0.226-0.74-1.105-0.783c-0.352-0.027-0.907,0.247-1.011,0.729
		c-0.049,0-0.412-0.442-0.813-0.605c-0.049-0.228-0.455-2.74-1.118-3.417c0-0.004,0.366-0.147,0.874,0.189
		c0.707,0.382,1.021,2.702,1.021,2.702l0.5-0.337c0,0-0.032-1.477-0.35-2.522c0.195-0.005,0.592-0.055,0.803,0.199
		c0.382,0.418,0.549,2.06,0.549,2.06l0.463-0.33c0,0-0.125-1.216-0.209-2.043c0.22-0.002,0.465-0.014,0.686,0.271
		c0.294,0.433,0.418,1.497,0.418,1.497l0.426-0.422c0,0-0.121-0.693-0.199-1.372c3.543-0.054,7.738-0.085,8.37,0.041
		C30.386,38.49,29.353,39.541,28.829,41.775z M32.671,37.557c-0.713,0.181-8.497-0.285-12.536,0.084v-0.988
		c5.674-0.261,12.505,0.21,12.505,0.21S32.765,37.241,32.671,37.557z"/>
	<g>
		<path fill-rule="evenodd" clip-rule="evenodd" fill="#FFFFFF" d="M74.309,36.351c-2.141-3.997-6.579-2.867-7.245-2.555
			c-1.905,0.54-3.767,3.133-3.716,5.699c-2.424-2.581-1.285-7.579-1.26-7.809c0.035-0.594,0.109-0.773,0.007-1.13
			c0.575-0.161,0.58-0.157,0.976-0.628c1.525-2.204,0.276-2.509-0.602-1.432c0.098-1.433-0.657-0.85-1.063-0.685
			c-0.034-1.015-0.758-0.471-0.912-0.227c-0.445-1.498-1.652-0.213-1.978,0.302c-1.397-0.456-2.104,0.228-2.129,0.228
			c1.301,0.324,1.192,0.685,1.217,0.685c-0.153,0.475-0.58,0.624-1.217,0.608c0.025,0.077,0.987,0.478,1.521-0.152
			c0.578-0.86-0.555-1.145-0.555-1.195c0.653,0.006,1.375,0.257,1.774,0.359c1.45,0.372,2.5,0.995,2.583,2.431
			c0.039,0.683-0.196,1.467-0.304,1.979c-0.268,1.255-0.301,3.215,0,4.332c0.337,1.266,1.882,4.95,2.668,3.342
			c0.338-0.697,0.357-1.897,0.942-3.494c0.703-1.906,2.891-3.474,5.55-2.924c4.698,0.976,4.109,4.736,3.963,5.164
			c-0.141,0.423-0.459,0.944-0.459,0.944s0.771-3.218-1.742-3.761c0.659,0.68,1.162,3.76-0.314,5.019
			c1.321-2.457,0.219-5.163-2.231-5.73c0.999,0.996,2.231,3.337,0.91,5.165c0.186-1.637,0.122-3.936-2.795-4.472
			c4.14,2.371,1.39,6.856,1.39,6.906c3.654-3.527,1.879-6.156,1.879-6.156s1.979,1.391-0.053,5.523
			c3.007-1.803,2.126-4.853,2.152-4.853c1.115,0.739,0.29,3.315,0.29,3.363c0.049,0,0.86-0.873,1.153-1.909
			C75.026,38.149,74.672,37.022,74.309,36.351z"/>
		<path fill-rule="evenodd" clip-rule="evenodd" fill="#FFFFFF" d="M58.897,29.559c0.099,0.059,0.683-0.406,0.683-0.456
			c-0.408-0.116-0.583-0.302-1.14-0.304C58.473,28.957,58.66,29.48,58.897,29.559z"/>
		<path fill-rule="evenodd" clip-rule="evenodd" fill="#FFFFFF" d="M61.919,55.006h0.229c-0.042,0.258-0.229,0.558-0.229,0.61
			c0.617-0.041,0.781-0.225,0.912-0.536c-0.023-0.513-0.338-0.563-0.606-0.835c0.009-0.049,0.332-0.332,0.381-0.53
			c0.064-0.274-0.344-1.113-0.228-1.522c0.105-0.363,0.44-0.355,0.53-0.758c-0.151-0.028-0.303-0.052-0.455-0.077
			c-0.361-1.718,0.813-2.459,0.979-3.938c0.864,0.176,1.7,0.069,2.366-0.243c-1.437-0.058-3.854-0.614-4.769-1.134
			c-1.443-0.482-3.988-3.454-4.312-3.993c-0.671-1.115-1.328-3.217-0.799-5.286c0.399-1.598,2.33-5.209,2.432-5.93
			c-0.082-0.727-1.061-1.112-1.218-1.139c0.035,0.225,0.113,0.282,0.153,0.378c-2.408,0.93-1.824,2.687-0.913,2.586
			c0.034,0.148-0.296,0.585,0.381,0.76c-0.163,0.486-1.674,2.881-1.75,4.636c-0.208,4.87,2.4,6.281,2.738,6.843
			c1.119,1.855-0.334,2.984-0.999,3.115c-0.88,0.171-1.43,0.342-1.889,0.208c-0.398-0.113-0.57-0.592-0.913-0.587
			c-0.71,0.035-0.781,0.592-1.211,0.884c0,0.122,0.951-0.527,0.907-0.199c-0.063,0.248-0.434,0.705-0.305,1.367
			c0.251-0.146,0.083-0.211,0.229-0.457c0.153-0.261,0.546-0.396,0.76-0.607c0.227,0.024,0.454,0.049,0.683,0.074
			c0.027,0.026,0.052,0.052,0.076,0.076c-0.002,0.579-0.18,0.99-0.532,1.22v0.151c0.536-0.132,0.991-0.549,1.064-1.141
			c1.105-0.005,1.792,0.083,2.434,0.457c0.056-0.203-0.03-0.426,0.076-0.61c0.454-0.346,0.974-0.229,1.57-0.544
			c0.124-0.062,0.392-0.267,0.482-0.369c0.025-0.024,0.106-0.006,0.106,0.02c1.897,1.465,0.754,5.413,0.695,5.616
			c0.177,0.08,0.219,0.119,0.219,0.119s0.019,0.043,0.05,0.1c0.017,0.012,0.032,0.021,0.035,0.026
			c0.831-1.604,0.63-4.247,0.186-5.268c-0.39-0.905-2.139-2.492-2.887-3.196v-0.074c0.331,0.277,2.617,1.838,4.226,2.049
			c0.029,0.927-0.655,2.58-0.655,2.605c-0.001,0.542,0,1.027,0.077,1.426c-0.09,0.396-0.053,1.027-0.183,1.531
			c0,0.178,0.057,0.364,0.057,0.539c-0.111,0.232-0.477,0.232-0.558,0.594c-0.139-0.023-0.241-0.145-0.298-0.232
			c-0.077-0.065-0.271-0.209-0.271-0.209s0.001-0.003,0.003-0.009c-0.004-0.001-0.01-0.004-0.014-0.006
			c-0.321,0.156-0.462,0.336-1.168,0.151c-0.197,0.206-0.381,0.346-0.532,0.605c-0.571-0.068-1.536-0.478-2.205-0.228
			c-0.948,0.36-2.097,1.652-2.097,1.652s-0.293,0.419-0.03,0.551c0.215,0.097,1.256,0.065,1.753,0.054
			c0.425-0.009,2.447-0.025,2.957-0.129c0.382-0.076,1.812-0.054,1.37-0.301c-0.279-0.188-2.431-0.15-2.431-0.15
			c-0.813,0-1.749-0.046-1.725-0.071c0.568-1.008,2.246-1.06,2.325-1.003c0.03,0.047,0.015,0.203,0.006,0.466h0.152
			c0.185-0.421,0.452-0.511,0.687-0.841c0.215,0.008,0.323,0.033,0.456,0.077c-0.272,0.548,0.401,1.121,0.401,1.095
			c0.167-0.153-0.068-0.509,0.054-0.715c0.145-0.169,0.386-0.204,0.53-0.38C61.814,54.476,61.798,54.742,61.919,55.006z"/>
		<path fill-rule="evenodd" clip-rule="evenodd" fill="#FFFFFF" d="M67.149,38.673c0.659,0.52,0.97,0.59,1.479,1.607
			c0.912,1.825-0.519,3.087-0.519,3.139c2.11-1.315,1.826-5.146-0.555-5.643c0.316,0.283,1.205,0.773,1.436,2.157
			C68.99,39.984,68.11,38.642,67.149,38.673z"/>
		<path fill-rule="evenodd" clip-rule="evenodd" fill="#FFFFFF" d="M58.356,41.64c-0.115-0.099-1.365-1.477-0.752-4.706
			C57.553,36.935,55.708,39.996,58.356,41.64z"/>
		<path fill-rule="evenodd" clip-rule="evenodd" fill="#FFFFFF" d="M64.525,45.91c-0.239,0.078-2.106,0.434-4.313-2
			C60.185,43.952,61.697,47.174,64.525,45.91z"/>
		<path fill-rule="evenodd" clip-rule="evenodd" fill="#FFFFFF" d="M64.525,45.91c0.018-0.005,0.029-0.01,0.027-0.01
			C64.543,45.904,64.534,45.906,64.525,45.91z"/>
		<path fill-rule="evenodd" clip-rule="evenodd" fill="#FFFFFF" d="M60.242,42.337c-0.037,0.052,1.5,4.172,4.976,2.826
			C64.925,45.244,62.619,45.592,60.242,42.337z"/>
		<path fill-rule="evenodd" clip-rule="evenodd" fill="#FFFFFF" d="M65.218,45.163c0.021-0.005,0.033-0.009,0.031-0.011
			C65.239,45.157,65.227,45.161,65.218,45.163z"/>
		<path fill-rule="evenodd" clip-rule="evenodd" fill="#FFFFFF" d="M64.658,43.524c-0.021-0.012-0.032-0.017-0.032-0.015
			C64.637,43.515,64.646,43.52,64.658,43.524z"/>
		<path fill-rule="evenodd" clip-rule="evenodd" fill="#FFFFFF" d="M64.658,43.524c0.258,0.161,2.079,1.617,1.308,5.573
			C66.026,49.09,68.009,45.158,64.658,43.524z"/>
		<path fill-rule="evenodd" clip-rule="evenodd" fill="#FFFFFF" d="M65.324,43.086c-0.021-0.009-0.032-0.013-0.031-0.01
			C65.304,43.078,65.315,43.083,65.324,43.086z"/>
		<path fill-rule="evenodd" clip-rule="evenodd" fill="#FFFFFF" d="M65.324,43.086c0.283,0.122,2.291,1.302,2.093,5.325
			C67.477,48.396,68.876,44.224,65.324,43.086z"/>
		<path fill-rule="evenodd" clip-rule="evenodd" fill="#FFFFFF" d="M65.323,42.46c0.007,0.002,0.013,0.002,0.021,0.002
			C65.33,42.46,65.323,42.459,65.323,42.46z"/>
		<path fill-rule="evenodd" clip-rule="evenodd" fill="#FFFFFF" d="M65.344,42.462c0.229,0.042,2.897,0.893,3.208,4.745
			C68.609,47.181,69.427,42.818,65.344,42.462z"/>
		<path fill-rule="evenodd" clip-rule="evenodd" fill="#FFFFFF" d="M58.993,41.328c0,0.018-0.852-1.075-0.53-3.285
			C58.427,38.043,57.353,40.081,58.993,41.328z"/>
		<path fill-rule="evenodd" clip-rule="evenodd" fill="#FFFFFF" d="M65.205,54.644c-0.749,0.007-1.013,0.404-0.987,0.454
			c0.67,0.162,1.658,0.219,2.375,0.75c0.196-0.015,0.438,0.014,0.438,0.014S66.655,54.781,65.205,54.644z"/>
		<path fill-rule="evenodd" clip-rule="evenodd" fill="#FFFFFF" d="M61.481,56.014v0.152c0.533,0.019,1.393,0.128,1.898,0.148
			c1.354,0.059,3.2-0.207,3.38-0.269c0.213,0,0.27-0.133,0.27-0.184c-0.733-0.025-1.468-0.052-2.202-0.076
			C64.451,56.053,62.15,55.89,61.481,56.014z"/>
		<polygon fill-rule="evenodd" clip-rule="evenodd" fill="#FFFFFF" points="60.996,53.525 60.953,53.565 61.174,53.786 
			61.276,53.828 61.292,53.782 61.253,53.629 		"/>
	</g>
	<path fill-rule="evenodd" clip-rule="evenodd" fill="#FFFFFF" d="M45.66,49.735c-0.041-0.884-0.041-2.004,0-2.887
		c2.765-0.313,4.637-1.802,5.282-3.84c2.016-6.359-4.595-7.078-5.205-7.414c-0.026-0.555,0.049-1.096,0.023-1.656
		c4.243-0.546,5.745-4.406,3.473-7.769c-0.963-1.426-4.054-1.977-4.104-1.977c-0.037-2.034-0.274-4.864-0.945-6.016
		c-0.377-0.355-0.629-0.398-1.033-0.445c-2.323-0.06-1.824,5.802-1.906,6.039c-1.035-0.127-1.905-0.519-2.267-1.385
		c-0.326-0.786,0.108-1.485,0.11-1.485c1.401-0.073,1.925-1.845,1.86-3.55c-0.021-0.553-0.213-1.382,0-1.747
		c0.018-0.885-0.345-0.504-0.763-0.938c-0.112-0.169,0.15-0.582,0.304-0.733c0.591-0.584,1.263-1.18,1.98-1.674
		c-0.563,0.166-1.867,1.339-2.057,1.358c-0.716,0.149,0.332-2.651,0.308-2.651c-0.263,0.624-0.591,1.425-0.788,2.227
		c-0.162,0.652,0.52,0.806,0.027,1.422c-0.096,0.12-0.321-0.011-0.533,0.077c-0.24,0.101-3.429,2.926-2.555,4.734
		c0.08,0.167,0.318,0.503,0.2,0.891c-0.158,0.517-0.605,0.944-0.762,1.521c-0.98,3.644,2.116,5.115,4.827,5.407
		c0.024,0.026-0.015,1.563,0.018,2.351c-2.741,0.295-4.942,1.324-5.982,3.34c-0.526,1.017-0.611,2.751,0,3.803
		c1.205,2.073,3.004,2.95,5.318,3.95c0.006,0.458,0.018,2.074,0.018,2.25c-2.5,0.511-4.945,1.51-6.095,3.374
		c-0.745,1.202-0.732,3.152,0,4.335c0.936,1.511,3.692,3.08,5.851,3.345c-0.016,0.483,0.067,2.145,0,2.353
		c-0.634,0.069-2.437,0.955-3.344,2.89c-1.025,3.075,1.292,4.354,3.269,5.322c-0.012,2.454-0.366,5.146-0.306,6.992
		c0.336,0.529,0.667,0.948,1.294,1.143c0.256,0.118,1.004-0.185,1.52-0.152c0.226,0.013,0.288,0.063,0.381,0.152
		c0.479,0.453,2.598-0.322,2.888-0.987c0.063-0.147,0-1.414,0-1.98c-0.024-1.495-0.05-2.787-0.074-4.279
		c0.5-0.468,1.21-1.318,1.591-1.891c2.056-3.106-1.282-2.935-1.821-2.874c0.025-0.381-0.034-0.736-0.007-1.116
		c2.74-0.531,5.039-1.258,5.699-3.89C52.577,50.789,47.631,49.786,45.66,49.735z M42.568,18.515
		c0.281-0.381,0.694-0.553,1.101-0.315c0.81,0.468,0.914,4.343,1.002,5.614c0.06,0.843,0.288,4.542,0.075,5.169
		c-0.628,0.145-2.64,0.487-2.64,0.487S41.497,20.549,42.568,18.515z M40.567,26.397c0.044-0.559,0.408-1.188,0.32-1.297
		c-0.197-0.103-1.713,0.687-1.763,0.687c0.149-0.44,1.043-1.331,0.794-1.357c-0.111-0.097-2.011,0.22-2.393,0.22
		c0-0.025,1.322-0.716,1.265-0.838c-0.006-0.151-1.717-0.624-1.795-0.684c0.257-0.104,1.036-0.266,1.015-0.395
		c0.011-0.23-0.622-0.678-1.015-0.896c0.257-0.085,0.989-0.186,1.05-0.346c0.049-0.395-0.425-0.556-0.596-1.023
		c-0.037-0.027,0.835-0.938,0.443-1.101c-1.365-0.563,1.513-4.491,1.732-4.476c0.509,0.023,0.558,0.116,0.849,0.315
		c-0.026,0.711-0.387,0.975-0.54,1.521c-0.126,0.463-0.354,1.325-0.291,1.841c0.238-0.158,0.335-0.345,0.53-0.55
		c-0.105-0.598,0.151-0.922,0.316-1.353c0.565,2.205-0.668,3.897-1.699,3.98c-0.002,0-0.002,0.001-0.001,0.002
		c-0.024,0.011-0.044,0.075-0.044,0.075l0.002,0.001c-0.183,0.469-0.13,0.316-0.206,0.602c-0.169,0.65-0.024,2.588,2.643,2.789
		c-0.005,0.663,0.056,1.316-0.008,1.902C40.971,26.122,40.589,26.397,40.567,26.397z M38.095,38.2c0-0.025,1.472-1.039,1.408-1.258
		c-0.125-0.37-2.991-0.503-3.271-0.739c-0.234-0.375,1.863-0.08,1.899-0.379c0.132-0.268-1.824-1.951-1.824-1.978
		c0.802,0.26,2.139,1.213,2.438,0.954c0.22-0.168-1.297-2.878-1.297-2.929c0.707,0.709,2.057,1.932,2.305,1.817
		c0.305-0.185-0.632-2.456-0.479-2.579c0.647,0.201,1.978,1.983,2.285,1.839c0.23-0.107-0.459-1.99-0.459-2.065
		c0.848,0.431,2.852,2.128,3.106,2.036c0.284-0.316-1.284-2.315-1.284-2.34c1.013,0.355,4.429,1.464,4.563,1.293
		c0.157-0.222-2.663-2.104-2.663-2.128c4.062-0.147,4.104-0.405,4.104-0.457c0.104-0.342-3.062-1.141-3.114-1.141
		c1.833-0.649,2.33-0.988,2.355-0.988c-0.262-0.448-2.122-0.248-2.813-0.228c-0.048-0.733-0.1-1.529-0.151-2.263
		c1.895,0.122,3.822,1.379,4.256,2.87c0.652,2.228,0.286,4.136-1.603,5.207c-1.697,0.962-5.477,1.007-6.298,1.195
		c-1.887,0.439-1.447,1.575-0.88,2.269c0.026,0.687,0.105,1.006-0.033,1.449C40.593,38.034,38.304,38.552,38.095,38.2z
		 M42.293,42.492c-0.126,0-0.612,0.097-0.74,0.097c0-1.62,0.11-7.407-0.036-7.872c0.972-0.231,2.52-0.293,3.612-0.564
		c0.014,1.601,0.083,7.345,0.083,7.676c-0.162,0.23-1.977,0.623-2.496,0.622c-0.085-0.722-0.191-5.301-0.191-5.301
		s-0.178,0.808-0.231,0.808C42.275,39.344,42.32,42.466,42.293,42.492z M39.149,52.392c0.364-0.571,0.425-1.169,0.5-1.472
		c-0.355-0.101-3.797,0.057-3.797,0.032c0.548-0.26,1.94-0.734,1.9-0.909c0.072-0.392-2.395-1.556-2.583-1.827
		c0.889,0.121,2.443,0.617,2.508,0.379c0.114-0.257-1.446-2.56-1.446-2.582c0.918,0.437,2.314,1.771,2.535,1.645
		c0.242-0.094-0.712-2.508-0.712-2.558c0.603,0.401,1.835,1.718,2.056,1.595c0.137-0.076-0.382-2.179-0.382-2.282
		c0.685,0.661,1.815,1.771,2,1.703c0.207-0.026-0.176-2.285-0.176-2.31c0.923,0.614,2.208,2.067,2.51,2.013
		c0.278-0.166-0.458-1.998-0.458-2.024c0.678,0.185,2.851,1.738,3.156,1.525c0.289-0.489-1.407-2.021-1.407-2.045
		c0.913,0.127,3.462,0.641,3.727,0.227c0.126-0.397-2.637-1.494-2.662-1.52c0.538-0.147,3.238-0.939,3.022-1.308
		c-0.25-0.396-3.336,0-3.174-0.214c0.01-0.379,1.779-1.285,1.743-1.577c-0.266-0.452-1.651,0.113-2.351,0.132
		c0.003-0.942,0.066-1.89,0.077-2.736c1.979,0.213,3.748,1.135,4.484,2.662c1.415,2.935-0.286,5.891-2.435,6.766
		c-1.816,0.737-4.628,0.509-6.687,1.063c-1.931,0.518-1.428,2.187-0.757,2.585v2.583C39.977,52.125,39.173,52.392,39.149,52.392z
		 M45.204,55.13c-0.05,0.134-0.015,0.078-0.076,0.157c-0.445,0.353-1.606,0.401-2.357,0.38c-0.051-1.722-0.113-8.152,0-8.483
		c0.678-0.1,2.307-0.262,2.357-0.262C45.153,48.342,45.335,54.911,45.204,55.13z M42.52,55.676
		c-0.394,0.113-0.636,0.167-0.967,0.217c-0.011-1.331-0.057-8.025,0.22-8.455c0.093-0.156,0.49-0.194,0.542-0.194
		C42.324,50.437,42.528,52.664,42.52,55.676z M42.393,72.009c-0.306,0.027-0.609,0.053-0.916,0.077
		c0.198-1.727,0.161-3.461-0.226-5.094c-0.076-0.318,0.313-1.207,0.267-1.378c-0.083-0.307-0.202-0.622-0.252-0.841
		c-0.058-0.255,0.055-0.576,0.085-0.712c0.183-0.837,0.208-3.568,0.208-3.568s0.127-0.44,1.041-0.517
		C42.6,59.976,42.818,68.224,42.393,72.009z M43.305,72.312c-0.193-0.024-0.154-3.193-0.154-3.925
		c0.297-0.697,2.204-2.536,2.204-2.536s0.046,4.154,0.067,5.638C44.96,72.203,43.346,72.456,43.305,72.312z M46.221,63.684
		c-0.044-0.211-0.327-0.512-0.283-0.687c0.055-0.409,0.691-0.918,0.627-1.171c-0.179-0.184-0.501-0.122-0.841-0.066
		c0-0.285,0.011-0.419,0.011-0.701c0.854-0.012,1.854,0.024,1.828,1.01c-0.021,0.793-1.662,2.567-2.875,3.782
		c-0.567,0.565-1.742,1.9-1.766,1.9c-0.006-0.363-0.002-0.642,0.153-0.836c0.109-0.292,0.774-0.648,0.823-0.738
		c0.067-0.209-0.199-0.275-0.153-0.389c0.173-0.277,1.097-0.595,1.232-0.735c0.073-0.246-0.019-0.547,0.015-0.637
		C45.09,64.026,46.148,63.832,46.221,63.684z M42.943,59.92c0,0,2.159-0.255,2.185-0.229c0.001,0.854,0.192,2.987-0.075,3.731
		c-0.25,0.679-1.952,2.58-1.978,2.58C43.081,64.481,42.943,59.92,42.943,59.92z M49.432,57.676
		c-0.975,0.662-3.338,1.578-6.446,1.642c-3.158,0.061-3.105,1.759-2.434,2.107c0.041,0.625,0,0.269,0,1.104
		c-0.43-0.007-1.71,0.054-1.811,0.054c0-0.028,0.805-0.636,0.762-0.877c-0.059-0.242-1.627-0.413-1.596-0.493
		c0.033-0.245,1.355-0.358,1.43-0.554c0.057-0.291-1.531-1.024-1.507-1.123c0.203-0.101,1.9,0.328,2.137,0.112
		c0.147-0.24-1.226-1.453-1.226-1.478c0.871,0.149,2.108,0.81,2.19,0.682c0.148-0.143-0.592-1.542-0.592-1.591
		c0.399,0.254,2.124,1.31,2.186,1.212c0.137-0.096-0.59-1.416-0.59-1.442c0.475,0.139,2.695,1.604,2.914,1.532
		c0.254-0.131-1.09-1.862-1.09-1.913c0.635,0.257,3.405,1.326,3.573,1.141c0.086-0.178-1.671-1.498-1.671-1.522
		c0.992,0.007,3.442-0.073,3.489-0.323c0.049-0.265-2.65-0.831-2.729-0.894c0.005-0.116,3.14-1.094,2.951-1.331
		c-0.583-0.222-3.078-0.186-3.18-0.186c0.123-0.3,2.312-1.542,2.207-1.67c-0.165-0.155-2.29,0.376-2.618,0.376
		c-0.064-0.514-0.036-1.403-0.044-2.037c1.689-0.017,3.87,0.75,4.56,1.809C51.55,53.945,50.891,56.69,49.432,57.676z"/>
	<g>
		<path fill="#FFFFFF" d="M10.871,67.687l-1.205,0.298c-0.091,0.018-0.142,0.035-0.239-0.007c-0.136-0.06-0.208-0.183-0.208-0.323
			c0-0.182,0.159-0.299,0.333-0.299c0.07,0,0.215,0.039,0.296,0.052l1.023,0.179V67.687z M11.131,67.012l-0.904-0.566
			c-0.16-0.091-0.345-0.187-0.345-0.4c0-0.189,0.142-0.326,0.33-0.326c0.226,0,0.289,0.174,0.399,0.333l0.579,0.894L11.131,67.012z
			 M11.19,68.348l-0.664,1.029c-0.088,0.129-0.16,0.191-0.327,0.191c-0.174,0-0.309-0.135-0.309-0.308
			c0-0.209,0.172-0.287,0.323-0.387l0.904-0.588L11.19,68.348z M11.823,68.355c-0.374,0-0.691-0.305-0.691-0.69
			c0-0.373,0.296-0.689,0.685-0.689c0.369,0,0.685,0.304,0.685,0.669C12.5,68.028,12.214,68.355,11.823,68.355z M11.766,66.718
			l-0.26-1.192c-0.021-0.1-0.036-0.159,0-0.252c0.043-0.13,0.165-0.21,0.296-0.21c0.181,0,0.346,0.151,0.346,0.333
			c0,0.065-0.045,0.214-0.059,0.281l-0.223,1.041H11.766z M11.86,68.591l0.243,1.061c0.017,0.063,0.052,0.207,0.052,0.281
			c0,0.178-0.173,0.319-0.346,0.319c-0.154,0-0.318-0.157-0.318-0.319c0-0.074,0.036-0.218,0.05-0.281l0.216-1.061H11.86z
			 M12.436,66.938l0.57-0.893c0.107-0.174,0.174-0.341,0.41-0.341c0.173,0,0.319,0.151,0.319,0.325c0,0.234-0.167,0.301-0.348,0.416
			l-0.88,0.566L12.436,66.938z M12.507,68.286l0.916,0.588c0.158,0.1,0.325,0.171,0.325,0.387c0,0.183-0.143,0.331-0.332,0.331
			c-0.145,0-0.208-0.063-0.281-0.172l-0.692-1.071L12.507,68.286z M12.769,67.586l1.038-0.206c0.073-0.017,0.217-0.044,0.282-0.044
			c0.173,0,0.332,0.143,0.332,0.317c0,0.165-0.158,0.314-0.325,0.314c-0.094,0-0.201-0.029-0.289-0.042l-1.038-0.24V67.586z"/>
	</g>
	<g>
		<path fill="#FFFFFF" d="M72.14,67.677l-1.206,0.298c-0.093,0.021-0.145,0.035-0.239-0.007c-0.136-0.057-0.209-0.183-0.209-0.324
			c0-0.18,0.16-0.295,0.333-0.295c0.072,0,0.214,0.038,0.293,0.052l1.029,0.177V67.677z M72.396,67.002l-0.9-0.565
			c-0.157-0.092-0.348-0.19-0.348-0.401c0-0.188,0.146-0.324,0.336-0.324c0.222,0,0.284,0.171,0.395,0.333l0.577,0.893
			L72.396,67.002z M72.455,68.338l-0.666,1.029c-0.084,0.129-0.157,0.191-0.321,0.191c-0.175,0-0.314-0.131-0.314-0.306
			c0-0.209,0.175-0.287,0.329-0.388l0.899-0.587L72.455,68.338z M73.089,68.345c-0.374,0-0.693-0.306-0.693-0.688
			c0-0.373,0.297-0.691,0.686-0.691c0.367,0,0.687,0.303,0.687,0.67C73.768,68.02,73.478,68.345,73.089,68.345z M73.032,66.706
			l-0.26-1.189c-0.022-0.101-0.037-0.159,0-0.251c0.042-0.129,0.167-0.21,0.296-0.21c0.182,0,0.345,0.152,0.345,0.33
			c0,0.069-0.043,0.215-0.058,0.282l-0.222,1.039H73.032z M73.128,68.583l0.242,1.058c0.014,0.063,0.05,0.209,0.05,0.282
			c0,0.176-0.17,0.319-0.347,0.319c-0.148,0-0.316-0.157-0.316-0.319c0-0.073,0.039-0.219,0.052-0.282l0.217-1.058H73.128z
			 M73.703,66.93l0.569-0.894c0.107-0.174,0.171-0.338,0.414-0.338c0.171,0,0.316,0.15,0.316,0.325c0,0.234-0.166,0.301-0.345,0.415
			l-0.88,0.565L73.703,66.93z M73.776,68.277l0.916,0.587c0.158,0.102,0.324,0.171,0.324,0.388c0,0.18-0.143,0.331-0.33,0.331
			c-0.147,0-0.214-0.064-0.286-0.172l-0.691-1.073L73.776,68.277z M74.036,67.578l1.037-0.207c0.072-0.016,0.22-0.043,0.283-0.043
			c0.172,0,0.331,0.143,0.331,0.316c0,0.164-0.159,0.318-0.322,0.318c-0.097,0-0.206-0.029-0.292-0.043l-1.037-0.241V67.578z"/>
	</g>
	<g>
		<path fill="#FFFFFF" d="M31.397,8.748l-0.443,0.111c-0.198,0.034-0.352-0.085-0.47-0.362c-0.153-0.366-0.388-1.052-0.661-1.848
			c0,0-0.276-0.814-0.283-0.836c0.005,0.007,0.036-0.003,0.036-0.003l0,0c0,0.005,0.132,0.097,0.132,0.097
			c0.269,0.19,2.703,1.638,3.219,1.854c0.5,0.209,0.806,0.321,1.301,0.202l0.615-0.191c0,0,0.524-0.154,1.525-0.272l0.984-0.085
			c0.103-0.011,0.167-0.038,0.157-0.123c-0.007-0.072-0.057-0.08-0.16-0.068l-0.139,0.015c-0.138,0.016-0.239-0.001-0.302-0.051
			c-0.051-0.039-0.079-0.099-0.089-0.184c-0.011-0.106,0.007-0.33,0.075-0.577l0.347-1.387c0.011-0.054,0.025-0.071,0.066-0.075
			l2.07-0.236c0.042-0.004,0.066,0.008,0.088,0.047l0.968,1.881c0.018,0.032,0.022,0.059,0.022,0.083
			c0.008,0.028,0.007,0.062-0.014,0.086c-0.014,0.02-0.035,0.03-0.058,0.035l-0.004,0.002c-0.084,0.019-0.135,0.042-0.128,0.11
			c0.009,0.072,0.107,0.066,0.258,0.056l0.041-0.003l1.755-0.182c0.28-0.032,0.378-0.056,0.413-0.101l0.002-0.006
			c0.012-0.014,0.018-0.031,0.017-0.049c-0.001-0.015-0.009-0.026-0.018-0.036c-0.024-0.039-0.073-0.04-0.127-0.033L42.2,6.629
			c-0.216-0.028-0.496-0.154-0.924-0.91l-1.87-3.442l-1.084-2c-0.115-0.195-0.184-0.286-0.279-0.275
			c-0.102,0.012-0.147,0.134-0.225,0.408l-1.661,6.094c-0.091,0.336-0.186,0.618-0.404,0.785C35.533,7.4,35.062,7.35,35.062,7.35
			c-0.508-0.021-1.011-0.255-1.498-0.482l-0.089-0.041c-0.454-0.209-2.823-1.485-3.283-1.789c0.195-0.404,1.078-2.19,1.26-2.547
			c0.228-0.446,0.459-0.758,0.727-0.984c0.149-0.12,0.357-0.23,0.479-0.27c0.042-0.016,0.068-0.032,0.086-0.051
			c0.021-0.013,0.036-0.037,0.036-0.065c0-0.042-0.037-0.08-0.082-0.08c-0.001,0-0.004,0.001-0.006,0.001
			c-0.037-0.004-0.079,0.009-0.114,0.021l-1.027,0.381l-0.918,0.283c-0.034,0.01-0.059,0.022-0.078,0.033
			c-0.033,0.011-0.057,0.04-0.057,0.076c0,0.026,0.012,0.048,0.031,0.062c0.03,0.033,0.078,0.033,0.137,0.026
			c0.083-0.011,0.138,0.03,0.176,0.128c0.007,0.023,0.011,0.049,0.011,0.081c0,0.15-0.096,0.383-0.206,0.665l-0.024,0.06
			c-0.091,0.233-0.43,0.961-0.732,1.6c0,0-0.448,0.973-0.45,0.975c-0.001-0.002-0.016,0.004-0.026,0.008
			c-0.007-0.018-0.143-0.414-0.143-0.414c-0.452-1.322-0.532-1.56-0.609-1.846c-0.03-0.114-0.049-0.206-0.049-0.284
			c0-0.151,0.064-0.242,0.198-0.319l0.236-0.11c0.027-0.009,0.087-0.032,0.102-0.081l0,0c0.002-0.007,0.007-0.013,0.007-0.022
			c0-0.001-0.001-0.004-0.001-0.006c0,0,0.001,0,0.001-0.001c0-0.029-0.016-0.051-0.038-0.064c-0.004-0.003-0.006-0.006-0.006-0.006
			c-0.035-0.017-0.091-0.011-0.188,0.021l-0.62,0.228l-0.439,0.163l-0.397,0.125l-0.852,0.27c-0.125,0.045-0.198,0.086-0.173,0.161
			c0.028,0.079,0.112,0.061,0.191,0.036c0.118-0.04,0.274-0.085,0.353-0.092c0.316-0.037,0.426,0.088,0.539,0.367
			c0.115,0.275,0.196,0.513,0.645,1.834l0.546,1.588C28.99,7.8,29.229,8.5,29.312,8.887c0.05,0.251,0.077,0.466-0.084,0.56
			l-0.305,0.145c-0.068,0.023-0.111,0.052-0.119,0.09c-0.01,0.059,0.038,0.093,0.038,0.093c0.042,0.03,0.094,0.013,0.178-0.015
			l0.691-0.253l0.413-0.154l0.404-0.128l0.876-0.279c0.117-0.038,0.168-0.096,0.145-0.159C31.51,8.704,31.397,8.748,31.397,8.748z
			 M39.178,4.247c-0.003,0.009-0.015,0.013-0.03,0.016l-1.709,0.196c-0.011,0.002-0.019,0-0.026-0.007
			c-0.007-0.006-0.009-0.021-0.007-0.042l0.591-2.378c0.005-0.047,0.02-0.08,0.035-0.082c0.019-0.002,0.031,0.034,0.042,0.063
			c0.003,0.009,1.101,2.204,1.101,2.204C39.18,4.224,39.184,4.237,39.178,4.247z"/>
		<path fill="#FFFFFF" d="M41.763,78.637c-2.655-0.081-3.927,1.782-3.982,3.55c-0.056,1.766,1.064,3.705,3.657,3.786
			c1.122,0.038,2.1-0.306,2.827-0.987c0.72-0.681,1.134-1.645,1.17-2.727C45.502,80.102,44.096,78.713,41.763,78.637z M41.847,85.5
			c-0.731-0.022-1.371-0.306-1.851-0.815c-0.611-0.654-0.929-1.633-0.896-2.745c0.035-1.052,0.309-1.824,0.816-2.307
			c0.499-0.466,1.125-0.547,1.561-0.533c0.682,0.021,1.289,0.293,1.751,0.79c0.593,0.63,0.903,1.581,0.868,2.671
			C44.01,85.272,42.494,85.519,41.847,85.5z"/>
		<path fill="#FFFFFF" d="M54.597,84.145c-0.015,0.031-0.052,0.05-0.125,0.066l-1.114,0.257l-0.407,0.089l-0.426,0.118l-1.117,0.302
			c-0.095,0.017-0.161,0.017-0.179-0.056c-0.018-0.07,0.016-0.111,0.058-0.121c0.099-0.024,0.542-0.169,0.707-0.249
			c0.256-0.126,0.284-0.257,0.24-0.556c-0.065-0.404-0.253-1.167-0.47-2.05l-0.358-1.438l0,0c0,0-0.304-1.188-0.304-1.192
			c-0.053-0.214-0.079-0.311-0.204-0.28c-0.12,0.031-0.462,0.309-0.71,0.51l-0.229,0.182c-0.164,0.115-0.224-0.023-0.224-0.023
			c-0.017-0.071,0.039-0.132,0.063-0.161c0.035-0.025,1.477-1.591,1.746-1.912c0.069-0.08,0.143-0.163,0.215-0.177
			c0.049-0.012,0.118,0.008,0.16,0.172l0.023,0.117c0.064,0.305,0.232,1.115,0.515,2.252l0.415,1.678
			c0.209,0.839,0.407,1.637,0.542,2.029c0.098,0.28,0.173,0.4,0.474,0.389c0.139-0.005,0.533-0.072,0.609-0.092
			C54.498,84,54.669,83.986,54.597,84.145z"/>
		<path fill="#FFFFFF" d="M59.854,80.079c-0.452-1.098-1.694-1.226-2.369-1.292c0.04-0.039,0.082-0.083,0.123-0.131
			c0.298-0.312,0.857-1.09,0.486-1.982c-0.141-0.345-0.372-0.584-0.689-0.714c-0.438-0.185-1.022-0.143-1.638,0.116
			c-1.144,0.465-1.512,1.249-1.512,1.876c0,0.202,0.04,0.39,0.102,0.544c0.265,0.635,0.871,0.977,1.906,1.069
			c-0.131,0.123-0.251,0.261-0.362,0.409c-0.374,0.473-0.57,0.974-0.57,1.465c0,0.245,0.046,0.481,0.14,0.707
			c0.181,0.434,0.491,0.755,0.897,0.921c0.544,0.229,1.247,0.19,1.984-0.117C59.86,82.327,60.249,81.03,59.854,80.079z
			 M57.482,78.792c0.104,0.012,0.229,0.028,0.359,0.046c-0.13-0.017-0.255-0.029-0.366-0.04
			C57.478,78.797,57.479,78.793,57.482,78.792z M55.25,78.054c0.014,0.017,0.026,0.033,0.039,0.05
			c-0.032-0.05-0.06-0.103-0.084-0.161c-0.06-0.148-0.091-0.307-0.091-0.455c0-0.135,0.025-0.269,0.076-0.387
			c0.108-0.263,0.326-0.462,0.643-0.599c0.551-0.228,1.112,0.032,1.361,0.632c0.334,0.814-0.046,1.39-0.301,1.66
			c-0.658-0.082-1.079-0.208-1.352-0.415c0.095,0.076,0.21,0.141,0.335,0.195C55.583,78.457,55.379,78.294,55.25,78.054z
			 M56.267,79.56c-0.103-0.012-0.199-0.024-0.294-0.039c0.096,0.014,0.197,0.021,0.298,0.034
			C56.27,79.555,56.269,79.56,56.267,79.56z M58.247,82.503c-0.7,0.289-1.49-0.071-1.801-0.817c-0.39-0.944,0.036-1.711,0.327-2.085
			c0.917,0.129,1.794,0.254,2.148,1.112C59.231,81.459,58.947,82.218,58.247,82.503z"/>
		<path fill="#FFFFFF" d="M65.395,79.231l-0.993,0.573l-0.356,0.209l-0.378,0.238l-0.977,0.61c-0.084,0.048-0.144,0.067-0.185,0.001
			c-0.037-0.061-0.016-0.112,0.021-0.135c0.086-0.053,0.467-0.313,0.603-0.438c0.204-0.197,0.193-0.33,0.062-0.609
			c-0.185-0.374-0.604-1.072-1.055-1.817l-0.767-1.268l-0.402-0.654l-0.239-0.387c-0.078-0.129-0.13-0.218-0.19-0.235l-0.087,0.023
			c-0.107,0.064-0.347,0.42-0.521,0.684c0,0-0.172,0.253-0.177,0.258c0,0-0.113,0.168-0.215,0.04
			c-0.039-0.063-0.004-0.137,0.013-0.168c0.024-0.041,0.94-1.965,1.103-2.344c0,0,0.1-0.269,0.222-0.25
			c0.042,0.011,0.085,0.055,0.131,0.131l0.066,0.115l1.149,1.991l0.895,1.479c0.448,0.739,0.872,1.443,1.118,1.777
			c0.174,0.233,0.281,0.33,0.569,0.233c0.134-0.048,0.491-0.232,0.553-0.27c0.035-0.022,0.091-0.015,0.127,0.047
			C65.483,79.066,65.55,79.158,65.395,79.231z"/>
		<path fill="#FFFFFF" d="M68.736,72.104c-0.37-0.443-1.355-1.48-2.527-1.585c-0.578-0.051-1.129,0.132-1.629,0.548
			c-1.301,1.091-1.144,2.799,0.437,4.687c1.074,1.29,2.733,2.236,4.161,1.047c0.51-0.434,0.797-0.958,0.852-1.572
			C70.113,74.292,69.667,73.212,68.736,72.104z M69.031,76.341c-0.883,0.742-2.365-0.393-3.363-1.588
			c-0.871-1.041-1.319-1.965-1.261-2.601c0.022-0.26,0.126-0.466,0.308-0.62c0.213-0.18,0.475-0.254,0.778-0.228
			c0.865,0.077,1.91,0.986,2.6,1.807C69.331,74.595,69.679,75.803,69.031,76.341z"/>
		<path fill="#FFFFFF" d="M7.509,32.397c-0.535-0.828-1.412-1.408-2.47-1.639c-0.985-0.21-1.89-0.073-2.618,0.397
			c-0.797,0.513-1.352,1.402-1.602,2.567c-0.561,2.597,1.046,4.18,2.775,4.553c1.727,0.373,3.839-0.383,4.385-2.917
			C8.215,34.261,8.054,33.238,7.509,32.397z M7.582,34.871c-0.352,1.644-1.995,2.492-3.994,2.064
			c-2.477-0.534-2.546-2.015-2.368-2.85c0.339-1.567,1.935-2.371,3.878-1.953C7.749,32.703,7.718,34.237,7.582,34.871z"/>
		<path fill="#FFFFFF" d="M3.269,26.754c0.035-0.012,0.062-0.048,0.095-0.119l0.155-0.263c0.192-0.256,0.36-0.247,0.641-0.135
			c0.278,0.11,0.512,0.217,1.797,0.822l1.492,0.697c0.775,0.362,1.446,0.677,1.779,0.886c0.215,0.14,0.391,0.269,0.347,0.45
			c0,0.001-0.111,0.319-0.111,0.319c-0.03,0.066-0.039,0.111-0.026,0.144c0,0,0.028,0.073,0.105,0.042
			c0.037-0.014,0.074-0.06,0.112-0.14l0.254-0.592l0.146-0.326l0.073-0.158l0.649-1.303l0.554-1.132
			c0.204-0.439,0.187-0.511,0.017-0.653c-0.213-0.185-0.815-0.539-0.915-0.586c-0.095-0.042-0.158-0.064-0.19,0.006
			c-0.039,0.08,0.021,0.125,0.089,0.165c0.152,0.095,0.337,0.306,0.397,0.455c0.124,0.304-0.004,0.615-0.224,1.09
			c-0.32,0.681-0.479,0.852-0.661,0.931c-0.231,0.104-0.82-0.171-1.889-0.673l-1.526-0.713c-1.262-0.592-1.491-0.698-1.749-0.841
			c-0.309-0.164-0.392-0.298-0.333-0.524l0.129-0.343c0.046-0.095,0.062-0.169-0.01-0.202c-0.073-0.033-0.122,0.036-0.176,0.149
			l-0.309,0.702l-0.201,0.46l-0.211,0.42l-0.36,0.725c-0.044,0.1-0.058,0.157-0.044,0.194C3.167,26.706,3.193,26.775,3.269,26.754z"
			/>
		<path fill="#FFFFFF" d="M23.815,6.063c0.013-0.049-0.014-0.126-0.091-0.254l-0.468-0.854l-0.07-0.131
			c-0.042-0.07-0.111-0.058-0.181-0.036c-0.292,0.082-0.658,0.204-1.153,0.493c-0.602,0.357-1.009,0.85-1.148,1.387
			c-0.109,0.427-0.047,0.858,0.184,1.249c0.411,0.694,1.085,1.046,2.322,1.208l0.542,0.069c0.946,0.118,1.299,0.414,1.54,0.817
			c0.258,0.442,0.16,1.13-0.533,1.54c-0.337,0.198-0.995,0.444-1.618-0.134c-0.128-0.121-0.254-0.268-0.312-0.366
			c-0.024-0.045-0.084-0.145-0.173-0.093c-0.085,0.047-0.027,0.185,0.021,0.282l0.02,0.039l0.561,1.04
			c0.105,0.179,0.158,0.208,0.326,0.186c0.419-0.047,0.808-0.194,1.3-0.483c0.518-0.305,0.873-0.66,1.089-1.09
			c0.153-0.31,0.209-0.599,0.209-0.863c0-0.431-0.154-0.781-0.28-0.991c-0.45-0.763-1.114-1.097-2.538-1.28L23.04,7.761
			c-0.93-0.107-1.302-0.265-1.529-0.647c-0.093-0.16-0.137-0.319-0.137-0.48c0-0.339,0.21-0.668,0.605-0.898
			c0.5-0.295,0.866-0.211,1.097-0.122c0.291,0.109,0.477,0.33,0.519,0.402c0.04,0.066,0.076,0.103,0.112,0.111
			C23.706,6.125,23.784,6.141,23.815,6.063z"/>
		<path fill="#FFFFFF" d="M50.589,7.765c-0.044,0.031-0.117,0.026-0.169,0.018l-1.008-0.189l-0.424-0.08l-0.434-0.06l-0.733-0.106
			c-0.13-0.021-0.189-0.066-0.177-0.135c0.013-0.074,0.104-0.067,0.172-0.056l0.335,0.018c0.188-0.004,0.266-0.155,0.336-0.409
			c0.108-0.377,0.228-1.093,0.378-1.998l0.282-1.68c0.226-1.359,0.268-1.604,0.298-1.899c0.033-0.312-0.031-0.477-0.219-0.554
			c-0.108-0.049-0.235-0.077-0.325-0.092c-0.078-0.014-0.156-0.039-0.14-0.13c0.011-0.071,0.105-0.069,0.246-0.047l0.678,0.131
			l0.516,0.098l0.444,0.064l0.682,0.098c0.1,0.016,0.157,0.038,0.181,0.071l0.011,0.045c-0.016,0.09-0.094,0.09-0.177,0.077
			l-0.278-0.018c-0.234,0.004-0.34,0.121-0.418,0.461c-0.067,0.294-0.116,0.577-0.343,1.947l-0.272,1.622
			c-0.145,0.867-0.271,1.612-0.301,2.021c-0.014,0.259,0.029,0.426,0.286,0.503l0.461,0.114c0.068,0.011,0.114,0.032,0.133,0.06
			C50.611,7.659,50.635,7.732,50.589,7.765z"/>
		<path fill="#FFFFFF" d="M67.687,9.94c0.079,0.054,0.159-0.026,0.259-0.173l0.576-0.782l0.093-0.118
			c0.045-0.068,0.005-0.127-0.046-0.183c-0.182-0.216-0.456-0.508-0.932-0.836c-0.575-0.397-1.193-0.562-1.739-0.461
			c-0.433,0.08-0.8,0.316-1.054,0.691c-0.461,0.667-0.496,1.423-0.122,2.615l0.164,0.522c0.289,0.909,0.171,1.352-0.094,1.74
			c-0.292,0.419-0.957,0.619-1.619,0.161c-0.324-0.22-0.823-0.714-0.56-1.521c0.055-0.168,0.134-0.344,0.197-0.435
			c0.031-0.043,0.098-0.142,0.013-0.201c-0.08-0.054-0.176,0.051-0.244,0.138l-0.735,0.982c-0.065,0.096-0.095,0.155-0.095,0.213
			c0,0.048,0.021,0.096,0.061,0.162c0.22,0.36,0.517,0.651,0.987,0.978c0.493,0.34,0.967,0.513,1.445,0.528
			c0.916,0.023,1.433-0.518,1.656-0.844c0.502-0.728,0.529-1.473,0.093-2.839l-0.105-0.311c-0.29-0.888-0.305-1.293-0.052-1.658
			c0.328-0.475,0.895-0.539,1.446-0.158c0.479,0.331,0.556,0.699,0.571,0.946c0.024,0.309-0.102,0.572-0.148,0.639
			C67.704,9.735,67.589,9.891,67.687,9.94z"/>
		<path fill="#FFFFFF" d="M67.533,17.061c0.056-0.055,0.125,0.006,0.173,0.055l0.264,0.212c0.156,0.109,0.353-0.013,0.539-0.161
			c0.312-0.238,0.833-0.749,1.441-1.339c0,0,2.733-2.663,2.751-2.679c-0.018-0.016-0.989-0.962-0.989-0.962
			c-0.373-0.359-0.57-0.503-0.817-0.458c-0.186,0.035-0.292,0.087-0.339,0.113c0,0-0.158,0.082-0.191-0.058
			c0-0.032,0.021-0.068,0.075-0.122c0.108-0.104,0.837-0.566,0.909-0.609c0.1-0.062,0.17-0.089,0.219-0.043l0.05,0.102
			c0.026,0.068,0.059,0.158,0.15,0.268c0.171,0.216,0.406,0.483,0.617,0.7l2.58,2.65c0,0,0.476,0.421,0.481,0.426l0.084,0.059
			l0.127,0.093c0.057,0.057,0.003,0.116-0.089,0.207c0,0-0.795,0.737-0.795,0.738c-0.062,0.046-0.13,0.094-0.182,0.042
			c-0.021-0.023-0.03-0.042-0.03-0.065c0-0.042,0.034-0.09,0.093-0.155l0.066-0.08c0.049-0.054,0.094-0.137,0.094-0.261
			c0-0.188-0.109-0.47-0.487-0.877c0,0-0.786-0.847-0.786-0.864l0,0c-0.001,0.002-2.743,2.671-2.743,2.671
			c-0.613,0.598-1.14,1.113-1.398,1.427c-0.099,0.121-0.189,0.242-0.189,0.376c0,0.071,0.024,0.146,0.083,0.223l0.305,0.365
			c0.055,0.056,0.072,0.097,0.072,0.128c0,0.021-0.01,0.036-0.022,0.049c-0.047,0.046-0.123,0.023-0.207-0.062l-0.708-0.755
			l-0.295-0.316l-0.307-0.301l-0.533-0.523C67.598,17.274,67.449,17.127,67.533,17.061z"/>
		<path fill="#FFFFFF" d="M77.414,17.994c0.062-0.04,0.134,0.045,0.202,0.146l0.378,0.584l0.28,0.437l0.263,0.372l0.398,0.557
			c0.056,0.08,0.108,0.181,0.047,0.222c-0.078,0.05-0.134-0.009-0.177-0.074l-0.177-0.218c-0.168-0.167-0.326-0.164-0.623,0.014
			c-0.255,0.149-0.456,0.287-1.571,1.042l-1.442,0.973c-0.76,0.513-1.361,0.92-1.673,1.174c-0.195,0.167-0.285,0.312-0.165,0.555
			l0.232,0.413c0.073,0.112,0.052,0.159,0.018,0.181c-0.054,0.038-0.121,0.003-0.191-0.095l-0.56-0.865l-0.232-0.359l-0.258-0.361
			l-0.425-0.597c0,0-0.135-0.158-0.022-0.222c0.063-0.044,0.121,0.028,0.16,0.085l0.219,0.255c0.133,0.13,0.292,0.084,0.525-0.04
			c0.349-0.178,0.939-0.58,1.688-1.085l1.416-0.958c1.155-0.781,1.364-0.921,1.597-1.103c0.251-0.19,0.326-0.354,0.252-0.544
			c-0.03-0.087-0.086-0.188-0.156-0.296C77.417,18.185,77.319,18.047,77.414,17.994z"/>
		<path fill="#FFFFFF" d="M75.111,27.521c0,0,0.17,0.291,0.172,0.292c0.103,0.148,0.3,0.122,0.563,0.036
			c0.375-0.116,1.044-0.412,1.836-0.761c0,0,3.475-1.53,3.495-1.539c-0.026-0.057-0.59-1.247-0.59-1.247
			c-0.225-0.468-0.36-0.668-0.607-0.713c-0.188-0.034-0.306-0.023-0.358-0.014c-0.062,0.011-0.126,0.012-0.157-0.055
			c-0.032-0.076,0.021-0.116,0.109-0.154c0.137-0.059,0.977-0.239,1.064-0.255c0.117-0.021,0.192-0.023,0.218,0.039l0.013,0.11
			c0,0.071,0,0.169,0.046,0.306c0.088,0.264,0.215,0.597,0.337,0.87l1.491,3.386c0,0,0.299,0.562,0.303,0.565l0.057,0.083
			l0.087,0.134l0.003,0.056c-0.013,0.039-0.062,0.063-0.157,0.105c0,0-1.002,0.411-1.003,0.411
			c-0.075,0.024-0.154,0.044-0.184-0.023c-0.01-0.016-0.015-0.032-0.015-0.045c0-0.051,0.052-0.086,0.146-0.137l0.093-0.049
			c0.095-0.053,0.217-0.173,0.217-0.448c0-0.181-0.051-0.423-0.188-0.756c0,0-0.437-1.056-0.437-1.083l0,0l0,0
			c-0.005,0.001-3.502,1.545-3.502,1.545c-0.782,0.344-1.459,0.642-1.807,0.849c-0.175,0.099-0.33,0.207-0.33,0.399
			c0,0.038,0.005,0.08,0.02,0.124L76.205,30c0,0,0.071,0.206-0.079,0.183c-0.049-0.02-0.085-0.083-0.107-0.134l-0.394-0.939
			l-0.171-0.409l-0.188-0.403l-0.312-0.663c-0.037-0.083-0.065-0.151-0.031-0.18C74.922,27.455,75.03,27.348,75.111,27.521z"/>
		<path fill="#FFFFFF" d="M84.493,34.476c0.098-0.012,0.081-0.1,0.054-0.23l-0.142-0.676l-0.094-0.451l-0.081-0.495l-0.137-0.848
			c-0.026-0.133-0.057-0.211-0.134-0.198c-0.083,0.017-0.078,0.098-0.062,0.186c0.021,0.12,0.042,0.282,0.037,0.359
			c-0.009,0.318-0.148,0.411-0.44,0.484c-0.289,0.071-0.531,0.116-1.882,0.364l-1.402,0.261c-1.162,0.213-1.89,0.617-2.29,1.271
			c-0.509,0.819-0.334,1.761-0.26,2.163c0.097,0.533,0.307,1.217,1.019,1.795c0.801,0.648,1.884,0.556,2.933,0.362l1.021-0.186
			c1.371-0.254,1.618-0.297,1.913-0.335c0.345-0.045,0.488,0.017,0.573,0.237l0.078,0.258c0.016,0.082,0.036,0.127,0.066,0.148
			c0,0,0.069,0.033,0.111-0.021c0.023-0.032,0.024-0.088,0.007-0.19l-0.166-0.781l-0.056-0.258c-0.004-0.02-0.169-1.063-0.169-1.063
			c-0.022-0.124-0.054-0.201-0.13-0.186c-0.083,0.014-0.08,0.096-0.064,0.184l0.035,0.334c-0.008,0.317-0.149,0.408-0.442,0.481
			c-0.289,0.072-0.532,0.117-1.942,0.376l-1.148,0.212c-0.985,0.179-1.786,0.29-2.369-0.111c-0.527-0.361-0.683-0.938-0.726-1.167
			c-0.058-0.321-0.092-0.745,0.164-1.213c0.322-0.581,0.935-0.908,2.119-1.126l1.343-0.247c1.357-0.252,1.601-0.297,1.895-0.333
			c0.343-0.042,0.487,0.016,0.571,0.237l0.078,0.26C84.369,34.334,84.416,34.499,84.493,34.476z"/>
		<path fill="#FFFFFF" d="M84.373,42.06c0.053,0.018,0.165,0.06,0.316,0.172c0.187,0.14,0.225,0.357,0.225,0.798
			c0,0.035,0,0.072,0,0.11c0,0-0.026,1.319-0.027,1.381c-0.021-0.002-3.844-0.178-3.844-0.178c-0.843-0.04-1.569-0.074-1.954-0.138
			c-0.275-0.041-0.461-0.106-0.489-0.287l-0.022-0.334c0-0.009,0.001-0.018,0-0.028c-0.01-0.176-0.14-0.113-0.14-0.113
			c-0.032,0.027-0.048,0.083-0.052,0.17l-0.019,0.733l-0.01,0.442l-0.029,0.444l-0.066,1.019c-0.004,0.077,0.01,0.137,0.037,0.167
			c0,0,0.056,0.046,0.108,0.008c0.025-0.022,0.041-0.069,0.043-0.137l0.06-0.471c0.054-0.285,0.271-0.318,0.514-0.334
			c0.403-0.026,1.139,0.01,1.994,0.046c0,0,3.822,0.181,3.826,0.181l0,0c-0.013,0.006-0.093,1.162-0.093,1.162
			c-0.063,0.915-0.38,1.059-0.563,1.065l-0.103,0.004c-0.137,0.001-0.198,0.02-0.203,0.104v0.004c0,0.071,0.079,0.087,0.155,0.1
			c0.001,0,1.082,0.078,1.082,0.078c0.106,0.005,0.163,0.002,0.191-0.023l0.021-0.052L85.312,48l-0.016-0.106
			c-0.003-0.018-0.018-0.642-0.018-0.642l0.174-3.693c0.013-0.302,0.047-0.66,0.088-0.931c0.017-0.139,0.062-0.229,0.093-0.293
			l0.036-0.104c0.005-0.068-0.062-0.097-0.177-0.129c-0.086-0.026-0.917-0.239-1.067-0.246c-0.073-0.005-0.118,0.003-0.142,0.026
			C84.283,41.88,84.192,41.997,84.373,42.06z"/>
		<path fill="#FFFFFF" d="M77.793,49.765c0.019,0.029,0.019,0.075,0,0.146l-0.044,0.331c-0.009,0.188,0.187,0.282,0.426,0.38
			c0.361,0.14,1.063,0.318,1.877,0.523l1.629,0.415l0.058,0.016c1.338,0.337,1.577,0.399,1.868,0.451
			c0.294,0.06,0.46,0.034,0.601-0.25c0.037-0.069,0.086-0.226,0.118-0.343c0.02-0.075,0.04-0.119,0.069-0.134
			c0,0,0.055-0.028,0.112,0.025c0.021,0.035,0.019,0.093-0.01,0.2l-0.196,0.732l-0.017,0.057l-0.145,0.508L84.11,52.93
			c-0.125,0.494-0.504,1.998-0.538,2.153l-0.045,0.404l0.002,0.06l-0.002,0.102c-0.015,0.065-0.084,0.046-0.11,0.041l-0.083-0.035
			l-0.484-0.19l-0.179-0.056l-0.409-0.138c-0.029-0.016-0.097-0.052-0.083-0.124c0,0,0-0.005,0.001-0.011
			c0,0,0.009-0.067,0.104-0.055l0,0c0.029,0,0.057,0,0.057,0c0.072,0.016,0.221,0.041,0.335,0.024
			c0.167-0.018,0.299-0.066,0.472-0.513c0.056-0.154,0.316-1.103,0.362-1.275l-0.002-0.038l-0.066-0.034l-2.288-0.581l-0.083-0.002
			c0,0-0.021,0.032-0.022,0.037c-0.203,0.793-0.326,1.311-0.348,1.445c-0.038,0.224-0.045,0.358,0.031,0.477
			c0.053,0.075,0.084,0.122,0.072,0.167c-0.007,0.03-0.029,0.073-0.1,0.052l-0.079-0.03c0,0-0.564-0.207-0.566-0.207
			c0,0-0.597-0.19-0.599-0.19c-0.072-0.02-0.18-0.045-0.157-0.139c0,0,0.031-0.084,0.114-0.069l0.086,0.016l0.25,0.029
			c0.218,0.002,0.364-0.125,0.471-0.406c0.062-0.171,0.303-1.086,0.353-1.278l-0.001-0.03L80.51,52.5l-0.716-0.184l-0.375-0.096
			l-1.028-0.26c-0.604-0.135-0.783-0.063-1.023,0.886c-0.058,0.228-0.155,0.608-0.106,0.876c0.048,0.253,0.197,0.406,0.559,0.567
			c0,0,0.209,0.092,0.084,0.192c-0.037,0.022-0.098,0.008-0.164-0.009c-0.209-0.054-0.802-0.283-0.976-0.374
			c-0.227-0.125-0.204-0.217-0.116-0.561l0.346-1.278l0.081-0.281l0.265-0.934l0.121-0.518l0.14-0.628
			c0.022-0.086,0.051-0.14,0.086-0.159C77.688,49.742,77.755,49.712,77.793,49.765z"/>
		<path fill="#FFFFFF" d="M81.245,58.31c0.031-0.01,0.074-0.002,0.139,0.029c0.134,0.067,0.816,0.595,0.883,0.649
			c0.093,0.078,0.142,0.134,0.114,0.195l-0.078,0.081c-0.054,0.047-0.128,0.107-0.2,0.229c-0.149,0.24-0.324,0.555-0.451,0.823
			l-1.617,3.323c0,0-0.237,0.596-0.239,0.598l-0.024,0.098c0,0-0.043,0.15-0.043,0.152c-0.035,0.071-0.109,0.042-0.225-0.014
			c0,0-0.964-0.494-0.964-0.496c-0.065-0.042-0.133-0.09-0.103-0.157c0.04-0.078,0.101-0.065,0.231-0.016l0.095,0.039
			c0.168,0.066,0.518,0.058,0.939-0.764c0,0,0.528-1.022,0.542-1.024l0,0c-0.004-0.004-3.444-1.676-3.449-1.678
			c-0.769-0.376-1.43-0.702-1.81-0.832c-0.227-0.081-0.443-0.135-0.603,0.101l-0.241,0.414c-0.056,0.12-0.11,0.126-0.144,0.108
			c-0.1-0.056-0.013-0.217-0.013-0.217l0.463-0.915l0.204-0.388l0.179-0.4l0.31-0.674c0.037-0.079,0.075-0.122,0.115-0.137
			c0,0,0.061-0.008,0.104,0.045c0.003,0.01,0.005,0.018,0.005,0.028c0,0.03-0.011,0.066-0.035,0.114l-0.115,0.314
			c-0.005,0.022-0.007,0.045-0.007,0.065c0,0.143,0.141,0.264,0.348,0.39c0.334,0.221,0.999,0.542,1.768,0.916
			c0,0,3.41,1.656,3.431,1.666c0.01-0.018,0.573-1.256,0.573-1.256c0.136-0.311,0.214-0.519,0.214-0.688
			c0-0.085-0.021-0.159-0.062-0.236c-0.097-0.163-0.181-0.247-0.223-0.277c-0.033-0.032-0.068-0.07-0.068-0.119
			C81.188,58.399,81.181,58.334,81.245,58.31z"/>
		<path fill="#FFFFFF" d="M15.715,19.17c0.048,0.001,0.096-0.036,0.168-0.103l0.603-0.604l0.11-0.112l0.195-0.174l0.664-0.601
			c0.084-0.083,0.155-0.167,0.092-0.232c-0.053-0.053-0.122-0.002-0.184,0.054c-0.098,0.095-0.233,0.215-0.392,0.286
			c-0.202,0.091-0.482-0.067-0.939-0.524l-2.775-2.777c0.013-0.002,0.312,0.021,0.312,0.021c0.582,0.045,1.793,0.134,2.933,0.159
			l1.748,0.046l2.141,0.05c0.146,0.003,0.29,0,0.371-0.067c0.002-0.002,0.005-0.003,0.007-0.006h0.002v-0.002
			c0.021-0.015,0.034-0.041,0.034-0.074c0-0.014-0.002-0.027-0.007-0.04c-0.018-0.051-0.062-0.116-0.137-0.196l-3.98-4.346
			c-0.357-0.388-0.426-0.577-0.293-0.799l0.181-0.211c0.086-0.082,0.107-0.146,0.064-0.191c-0.06-0.067-0.146,0.007-0.228,0.085
			l-0.527,0.528l-0.119,0.123l-0.246,0.219l-0.593,0.536c-0.085,0.081-0.138,0.142-0.139,0.193l0.021,0.051l0.057,0.029
			c0.034,0.001,0.074-0.02,0.124-0.069c0.096-0.091,0.256-0.244,0.396-0.3c0.232-0.088,0.417,0.003,0.796,0.391l2.947,2.974
			l0.02,0.022l-0.058-0.003l-0.036-0.003l0,0c-0.185-0.009-0.901-0.043-0.901-0.043l-2-0.087c-2.009-0.047-4.143-0.181-4.164-0.182
			l-0.13-0.007c-0.162-0.013-0.264-0.021-0.328,0.037c-0.085,0.081,0.034,0.227,0.129,0.331l3.745,4.067
			c0.551,0.597,0.704,0.816,0.584,1.028c-0.073,0.126-0.201,0.255-0.269,0.319c-0.054,0.05-0.078,0.087-0.079,0.122
			C15.633,19.088,15.643,19.176,15.715,19.17z"/>
		<path fill="#FFFFFF" d="M14.388,20.898c-0.032-0.022-0.087-0.025-0.159,0.086l-0.299,0.369c-0.182,0.198-0.349,0.167-0.579,0.045
			c-0.35-0.196-0.947-0.608-1.705-1.127l-1.353-0.935c-1.172-0.807-1.382-0.954-1.62-1.138C8.4,17.986,8.34,17.841,8.436,17.625
			L8.57,17.38c0.045-0.065,0.081-0.137,0.005-0.189c-0.062-0.045-0.132,0.042-0.187,0.121l-0.371,0.569l-0.253,0.386l-0.31,0.429
			l-0.399,0.552c-0.061,0.084-0.087,0.142-0.091,0.182c-0.001,0.005-0.002,0.008-0.002,0.011c0,0.002,0.001,0.006,0.001,0.009
			c0,0.001,0,0.002,0,0.002l0.002,0.001c0.005,0.036,0.036,0.062,0.076,0.062c0.017,0,0.03-0.005,0.042-0.013
			c0.033-0.015,0.061-0.047,0.084-0.083c0.072-0.109,0.149-0.195,0.219-0.253c0.149-0.139,0.327-0.128,0.599,0.035
			c0.249,0.15,0.449,0.288,1.556,1.051l1.437,0.99c0.724,0.497,1.351,0.928,1.649,1.19c0.202,0.173,0.303,0.305,0.23,0.478
			l-0.162,0.293c-0.04,0.06-0.056,0.104-0.05,0.137c0,0,0.01,0.06,0.093,0.058c0.044-0.006,0.088-0.045,0.138-0.115l0.403-0.618
			l0.24-0.368l0.258-0.355l0.591-0.828C14.439,21.015,14.447,20.936,14.388,20.898z"/>
		<path fill="#FFFFFF" d="M7.168,46.856l-0.042-0.76l-0.022-0.375l-0.002-0.288l-0.013-1.087c-0.006-0.133-0.04-0.196-0.112-0.193
			c-0.055,0.001-0.084,0.048-0.082,0.126l-0.022,0.455c-0.026,0.259-0.193,0.332-0.492,0.372c-0.392,0.06-1.134,0.083-1.995,0.111
			l-0.131,0.004l-0.049-0.013L4.188,45.16l-0.007-0.812c-0.001-0.067,0.007-0.118,0.055-0.162l0.607-0.469l0.654-0.497
			c0.73-0.569,1.137-0.933,1.333-1.327c0.125-0.255,0.163-0.502,0.146-1.009l-0.029-0.887c-0.002-0.074-0.013-0.122-0.033-0.15
			c-0.004-0.005-0.007-0.009-0.01-0.013c-0.001,0-0.001-0.001-0.001-0.001v0c-0.014-0.015-0.033-0.024-0.056-0.024
			c-0.011,0-0.021,0.002-0.03,0.006c-0.031,0.008-0.064,0.037-0.062,0.122l-0.02,0.263c-0.024,0.152-0.088,0.533-0.597,1.058
			c-0.484,0.494-1.148,1.054-1.989,1.766l-0.4,0.339c-0.013-0.016-0.029-0.029-0.042-0.045c-0.039-0.044-0.079-0.09-0.117-0.132
			c-0.652-0.707-1.253-1.015-1.966-0.994c-0.674,0.024-1.123,0.458-1.267,0.684c-0.337,0.531-0.365,1.177-0.347,1.735l0.069,1.317
			l0.004,0.372l0.01,0.907c0.003,0.134,0.021,0.218,0.099,0.216c0.085-0.005,0.093-0.086,0.091-0.177
			c-0.005-0.12,0-0.284,0.016-0.36c0.056-0.315,0.21-0.384,0.511-0.411c0.296-0.029,0.552-0.037,1.967-0.083l1.653-0.053
			c0.852-0.025,1.593-0.048,1.99-0.017c0.253,0.029,0.467,0.066,0.511,0.248L6.979,46.9c0.003,0.072,0.014,0.117,0.041,0.14l0,0
			c0.012,0.012,0.029,0.022,0.048,0.022c0.015,0,0.027-0.007,0.039-0.015C7.152,47.024,7.172,46.964,7.168,46.856z M3.645,45.163
			c-0.024,0.062-0.058,0.08-0.156,0.083l-2.835,0.089c-0.074,0.003-0.105-0.015-0.123-0.07c-0.028-0.086-0.044-0.242-0.052-0.491
			c-0.01-0.351,0.126-0.714,0.367-0.974c0.292-0.312,0.726-0.48,1.285-0.496c0.861-0.03,1.251,0.3,1.407,0.499
			c0.121,0.159,0.165,0.277,0.176,0.651C3.723,44.722,3.696,44.988,3.645,45.163z"/>
		<path fill="#FFFFFF" d="M9.184,55.396l-0.243-0.874l-0.054-0.189L8.67,53.366c-0.023-0.087-0.056-0.165-0.144-0.141
			c-0.071,0.02-0.071,0.071-0.046,0.165l0.035,0.138c0.06,0.245,0.003,0.376-0.181,0.425c-0.101,0.024-0.325,0.037-0.583,0.004
			l-1.417-0.161c-0.058-0.005-0.075-0.012-0.084-0.055l-0.514-2.017c-0.009-0.043,0-0.07,0.038-0.097l1.733-1.212
			c0.043-0.034,0.081-0.039,0.11-0.036c0.001,0,0.003-0.003,0.006-0.003c0.065,0,0.086,0.042,0.124,0.123
			c0.023,0.042,0.054,0.062,0.101,0.051c0.067-0.017,0.047-0.114,0.018-0.261l-0.007-0.042l-0.417-1.714
			c-0.07-0.271-0.085-0.38-0.155-0.395c-0.121-0.017-0.104,0.143-0.104,0.143l0.058,0.387c0.004,0.217-0.085,0.516-0.778,1.039
			l-3.158,2.312l-1.839,1.348c-0.179,0.135-0.261,0.223-0.238,0.312c0.028,0.102,0.154,0.127,0.438,0.17l6.262,0.824
			c0.348,0.046,0.642,0.1,0.838,0.3c0.127,0.108,0.15,0.679,0.15,0.679c0.046,0.503-0.117,1.034-0.277,1.547l-0.03,0.091
			c-0.143,0.476-1.084,2.996-1.328,3.494c-0.432-0.137-2.299-0.771-2.692-0.909c-0.473-0.165-0.813-0.353-1.075-0.583
			c-0.14-0.133-0.277-0.323-0.331-0.435c-0.029-0.061-0.056-0.091-0.086-0.1l-0.065,0.006l-0.042,0.044
			c-0.012,0.037-0.001,0.083,0.033,0.151l0.513,0.963l0.405,0.873c0.034,0.066,0.062,0.1,0.092,0.109l0.064-0.006
			c0.063-0.034,0.054-0.093,0.036-0.162c-0.022-0.081,0.01-0.139,0.101-0.188c0.132-0.067,0.417,0.002,0.773,0.092L5.06,60.65
			c0.243,0.059,1.003,0.296,1.673,0.505c0,0,1.035,0.318,1.038,0.318l0,0c0,0.002,0.005,0.016,0.01,0.024
			c-0.019,0.01-0.476,0.247-0.476,0.247c-1.154,0.573-1.395,0.693-1.661,0.806c-0.32,0.139-0.475,0.122-0.617-0.066
			c-0.009-0.012-0.14-0.221-0.14-0.221c-0.016-0.032-0.063-0.124-0.148-0.085c-0.071,0.036-0.048,0.117,0.007,0.231l0.302,0.569
			l0.226,0.429l0.183,0.381l0.379,0.8c0.048,0.097,0.083,0.143,0.122,0.156l0.06-0.006c0.075-0.039,0.046-0.121,0.009-0.195
			c-0.054-0.109-0.121-0.258-0.137-0.336c-0.08-0.305,0.028-0.434,0.294-0.583c0.252-0.147,0.469-0.258,1.684-0.865l1.564-0.784
			c0.758-0.381,1.412-0.707,1.781-0.838c0.241-0.083,0.451-0.14,0.565,0.008l0.182,0.284c0.033,0.061,0.064,0.097,0.097,0.106
			c0.197,0.016,0.059-0.228,0.059-0.228l-0.345-0.647l-0.207-0.389l-0.183-0.393l-0.396-0.824c-0.051-0.107-0.117-0.151-0.175-0.12
			c-0.027,0.013-0.042,0.037-0.042,0.07c0,0.025,0.009,0.055,0.023,0.084c0,0.002,0.17,0.422,0.17,0.422
			c0.012,0.037,0.018,0.073,0.018,0.106c0,0.148-0.103,0.283-0.312,0.409c-0.336,0.2-0.975,0.521-1.712,0.887
			c0,0-0.797,0.399-0.817,0.409h0c0-0.012-0.011-0.032-0.011-0.032c0,0.011,0.081-0.146,0.081-0.146
			c0.151-0.291,1.257-2.9,1.404-3.44c0.138-0.521,0.207-0.839,0.023-1.315l-0.267-0.571C9.278,55.667,9.184,55.396,9.184,55.396z
			 M5.728,53.706c-0.006,0.01-0.021,0.015-0.04,0.015L3.25,53.447c-0.051,0.001-0.082-0.008-0.085-0.023
			c-0.004-0.017,0.029-0.034,0.056-0.048c0.007-0.003,2.036-1.388,2.036-1.388c0.007-0.002,0.019-0.01,0.027-0.005
			c0.013,0.005,0.02,0.018,0.022,0.031L5.73,53.68c0.001,0.007,0.001,0.009,0.001,0.014C5.731,53.698,5.73,53.706,5.728,53.706z"/>
		<path fill="#FFFFFF" d="M18.697,78.567l-0.282-0.273c-0.133-0.176-0.238-0.465,0-1.297l1.142-3.785l0.65-2.15
			c0.06-0.214,0.075-0.327,0.001-0.387c-0.083-0.063-0.202-0.01-0.451,0.127l-5.5,3.105c-0.479,0.27-0.788,0.366-1.135,0.159
			l-0.233-0.168c-0.161-0.071-0.176,0.057-0.176,0.057c0.004,0.04,0.035,0.075,0.107,0.134l0.717,0.547l0.159,0.117l0.754,0.645
			c0.06,0.05,0.106,0.082,0.136,0.063c0.138-0.069-0.002-0.2-0.002-0.2l-0.108-0.087c-0.196-0.155-0.229-0.299-0.111-0.447
			c0.066-0.08,0.24-0.226,0.464-0.354l1.23-0.726c0.046-0.029,0.067-0.03,0.099-0.006l1.625,1.306
			c0.035,0.026,0.043,0.056,0.029,0.099l-0.658,2.011c-0.019,0.062-0.054,0.091-0.081,0.104h-0.003
			c-0.013,0.008-0.028,0.015-0.047,0.015c-0.018,0.001-0.035-0.002-0.048-0.01l-0.006,0.001c-0.072-0.048-0.126-0.069-0.168-0.016
			c-0.044,0.056,0.03,0.123,0.146,0.221l0.028,0.027l1.363,1.122c0.222,0.175,0.308,0.23,0.361,0.224
			C18.833,78.705,18.697,78.567,18.697,78.567z M18.797,72.113c-0.004,0.009-0.793,2.329-0.793,2.329
			c-0.003,0.008-0.008,0.02-0.018,0.023c-0.013,0.002-0.025-0.005-0.033-0.015l-1.342-1.068c-0.01-0.008-0.014-0.014-0.014-0.021
			c0-0.012,0.009-0.024,0.024-0.039l2.109-1.25c0.038-0.03,0.07-0.043,0.083-0.03C18.826,72.051,18.811,72.086,18.797,72.113z"/>
		<path fill="#FFFFFF" d="M27.384,75.421c0.041-0.046,0.117,0.01,0.229,0.066l0.707,0.381l0.284,0.157l0.156,0.07l0.672,0.319
			c0.102,0.054,0.199,0.109,0.157,0.193c-0.029,0.056-0.097,0.057-0.203,0.002l-0.259-0.106c-0.254-0.049-0.407,0.083-0.658,0.547
			l-2.782,5.196c0,0-0.133,0.247-0.254,0.205c-0.096-0.051-0.148-0.19-0.193-0.331l-0.66-2.023l-0.539-1.677
			c-0.355-1.086-0.674-2.258-0.827-2.822c0,0-0.079-0.284-0.083-0.298l0,0l-1.698,3.538c-0.279,0.581-0.333,0.896-0.182,1.059
			c0.117,0.125,0.273,0.215,0.398,0.278c0.069,0.035,0.106,0.067,0.117,0.101c0,0,0.01,0.073-0.054,0.095
			c-0.041,0.013-0.101-0.002-0.201-0.053l-0.796-0.431l-0.218-0.126l-0.14-0.065l-0.771-0.369c-0.085-0.045-0.14-0.078-0.154-0.124
			c0,0-0.025-0.071,0.048-0.103c0.034-0.012,0.078,0,0.142,0.031c0.083,0.046,0.248,0.122,0.391,0.15
			c0.241,0.042,0.397-0.174,0.775-0.89l2.597-4.879c0.072-0.143,0.137-0.22,0.196-0.24c0,0,0.121-0.068,0.219,0.305l0.034,0.123
			c0.005,0.019,0.585,2.076,1.207,3.986l0.579,1.909c0,0,0.201,0.675,0.259,0.865l0.017,0.054l0.014,0.058l0.013-0.037
			c0.04-0.084,1.828-3.767,1.828-3.767c0.143-0.296,0.209-0.488,0.203-0.631c-0.003-0.099-0.038-0.176-0.101-0.253
			c-0.099-0.113-0.291-0.211-0.413-0.272C27.44,75.611,27.28,75.524,27.384,75.421z"/>
		<path fill="#FFFFFF" d="M37.369,78.866l-0.271-0.045c-0.257,0.001-0.381,0.155-0.533,0.662l-1.664,5.655
			c-0.031,0.108-0.06,0.179-0.096,0.219c-0.02,0.023-0.047,0.042-0.079,0.042c-0.01,0-0.019-0.003-0.025-0.007l-0.007,0.003
			c-0.003-0.003-0.004-0.006-0.006-0.006c-0.004-0.002-0.007-0.004-0.012-0.005c-0.094-0.039-0.175-0.161-0.239-0.28l-1.08-1.88
			l-0.848-1.496c-0.562-0.983-1.112-2.064-1.374-2.581c0,0-0.144-0.274-0.152-0.288v-0.001l-0.943,3.807
			c-0.157,0.632-0.146,0.951,0.035,1.075c0.142,0.1,0.314,0.151,0.448,0.191c0,0,0.204,0.053,0.104,0.178
			c-0.033,0.036-0.103,0.019-0.208-0.011l-0.864-0.259l-0.244-0.074l-0.147-0.035l-0.834-0.202
			c-0.252-0.058-0.181-0.161-0.181-0.161c0.035-0.076,0.105-0.061,0.179-0.037c0.089,0.022,0.266,0.064,0.415,0.063
			c0.241-0.007,0.35-0.257,0.576-1.032l1.55-5.307c0.038-0.136,0.101-0.311,0.217-0.28c0.082,0.021,0.129,0.117,0.201,0.259
			l0.06,0.116c0.137,0.266,1.088,2.075,1.996,3.658l0.944,1.733c0,0,0.408,0.751,0.457,0.851l0,0l0.004,0.009l0.002,0.003l0,0
			l0.022,0.042l0.007-0.025h0.002c0.014-0.05,1.025-4.067,1.025-4.067c0.055-0.225,0.086-0.39,0.086-0.515
			c0-0.175-0.055-0.279-0.167-0.366c-0.118-0.09-0.329-0.148-0.458-0.182c-0.092-0.027-0.131-0.057-0.133-0.109
			c-0.002-0.047,0.036-0.074,0.036-0.074c0.045-0.026,0.125-0.011,0.236,0.02l0.767,0.235l0.315,0.094l0.17,0.04l0.721,0.178
			c0.097,0.026,0.186,0.057,0.186,0.094C37.565,78.765,37.597,78.913,37.369,78.866z"/>
		<path fill="#FFFFFF" d="M54.87,9.107c-0.036,0.085-0.147,0.054-0.251,0.015l-0.832-0.351l-0.235-0.103l-0.154-0.054l-0.795-0.291
			c-0.109-0.044-0.197-0.086-0.162-0.176c0.029-0.07,0.117-0.045,0.18-0.02c0.109,0.042,0.268,0.096,0.405,0.109
			c0.243,0.019,0.378-0.21,0.683-0.963l2.115-5.108c0.052-0.133,0.131-0.302,0.244-0.258c0.08,0.031,0.117,0.13,0.172,0.282
			l0.047,0.121c0.009,0.019,0.789,2.02,1.589,3.851l0.767,1.858c0,0,0.356,0.866,0.356,0.874c0,0,0.003,0,0.005,0.001l0.016,0.036
			l0.008-0.021c0,0,0.016-0.041,0.016-0.039c0.021-0.049,1.441-3.889,1.441-3.889c0.098-0.258,0.147-0.44,0.147-0.581
			c0-0.13-0.044-0.222-0.131-0.305c-0.108-0.1-0.31-0.182-0.437-0.23c-0.083-0.032-0.121-0.068-0.121-0.112
			c0-0.013,0.002-0.025,0.007-0.039c0.034-0.082,0.146-0.043,0.271,0.006l0.734,0.313l0.307,0.129l0.157,0.055l0.702,0.255
			c0.095,0.039,0.157,0.071,0.175,0.116l-0.038,0.099c-0.038,0.016-0.09,0.009-0.168-0.022l-0.264-0.073
			c-0.258-0.026-0.398,0.115-0.602,0.603l-2.263,5.442c-0.051,0.135-0.103,0.207-0.156,0.23h-0.076
			c-0.101-0.039-0.167-0.177-0.228-0.312L57.64,8.583l-0.69-1.598c-0.458-1.043-0.885-2.175-1.091-2.723c0,0-0.107-0.28-0.112-0.291
			V3.971l-1.351,3.685c-0.221,0.607-0.244,0.927-0.08,1.073c0.128,0.111,0.294,0.185,0.425,0.237
			C54.741,8.965,54.901,9.02,54.87,9.107z"/>
	</g>
</g>
</svg>
